<svg xmlns="http://www.w3.org/2000/svg" viewBox="0 0 24 24">
    <svg xmlns="http://www.w3.org/2000/svg" fill="none" viewBox="0 0 24 24" stroke-width="1.5" stroke="red" class="size-6">
        <path stroke-linecap="round" stroke-linejoin="round" d="M8.25 3v1.5M4.5 8.25H3m18 0h-1.5M4.5 12H3m18 0h-1.5m-15 3.75H3m18 0h-1.5M8.25 19.5V21M12 3v1.5m0 15V21m3.75-18v1.5m0 15V21m-9-1.5h10.5a2.25 2.25 0 0 0 2.25-2.25V6.75a2.25 2.25 0 0 0-2.25-2.25H6.75A2.25 2.25 0 0 0 4.5 6.75v10.5a2.25 2.25 0 0 0 2.25 2.25Zm.75-12h9v9h-9v-9Z" />
    </svg>
    <svg xmlns="http://www.w3.org/2000/svg" viewBox="3 3 16 16" fill="orange">
        <path fill-rule="evenodd" d="M9.58 1.077a.75.75 0 0 1 .405.82L9.165 6h4.085a.75.75 0 0 1 .567 1.241l-6.5 7.5a.75.75 0 0 1-1.302-.638L6.835 10H2.75a.75.75 0 0 1-.567-1.241l6.5-7.5a.75.75 0 0 1 .897-.182Z" clip-rule="evenodd" />
    </svg>
 </svg>
